<?xml version="1.0" standalone="no"?>
<!DOCTYPE svg PUBLIC "-//W3C//DTD SVG 20010904//EN"
 "http://www.w3.org/TR/2001/REC-SVG-20010904/DTD/svg10.dtd">
<svg version="1.0" xmlns="http://www.w3.org/2000/svg"
 width="200.000000pt" height="200.000000pt" viewBox="0 0 200.000000 200.000000"
 preserveAspectRatio="xMidYMid meet">
<metadata>
Created by potrace 1.11, written by Peter Selinger 2001-2013
</metadata>
<g transform="translate(0.000000,200.000000) scale(0.100000,-0.100000)"
fill="#000000" stroke="none">
<path d="M968 1380 c-114 -29 -208 -106 -257 -209 -24 -51 -26 -67 -26 -181 0
-118 2 -128 29 -182 52 -104 141 -166 268 -188 68 -12 173 -3 234 20 23 9 26
14 20 42 -3 17 -8 34 -11 36 -3 3 -24 -1 -47 -8 -24 -7 -75 -12 -115 -12 -174
0 -283 113 -283 296 0 99 22 168 71 221 73 79 180 109 294 84 80 -18 76 -19
90 22 l13 36 -36 12 c-49 16 -198 23 -244 11z"/>
<path d="M1585 1377 c-98 -26 -168 -74 -220 -152 -73 -110 -86 -305 -27 -420
69 -136 231 -210 407 -186 39 6 84 15 98 20 24 9 25 12 15 49 l-10 39 -41 -14
c-50 -17 -157 -19 -214 -4 -224 61 -264 436 -60 556 84 48 185 55 293 20 17
-5 23 -2 28 18 3 14 8 32 12 40 13 35 -185 59 -281 34z"/>
<path d="M180 1000 l0 -380 45 0 45 0 0 170 0 170 140 0 140 0 0 40 0 40 -140
0 -140 0 0 130 0 130 155 0 155 0 0 40 0 40 -200 0 -200 0 0 -380z"/>
</g>
</svg>
