<svg width="36" height="21" viewBox="0 0 36 21" xmlns="http://www.w3.org/2000/svg">
<path d="M16.9153 0.777348L1.34015 16.3528C0.979622 16.713 0.781006 17.1939 0.781006 17.7067C0.781006 18.2194 0.979622 18.7003 1.34015 19.0606L2.48689 20.2076C3.23412 20.954 4.44858 20.954 5.19467 20.2076L18.2738 7.12852L31.3673 20.2221C31.7279 20.5823 32.2085 20.7812 32.721 20.7812C33.234 20.7812 33.7146 20.5823 34.0754 20.2221L35.2219 19.0751C35.5824 18.7146 35.781 18.234 35.781 17.7212C35.781 17.2084 35.5824 16.7275 35.2219 16.3673L19.6325 0.777348C19.2708 0.416253 18.7879 0.217922 18.2746 0.21906C17.7593 0.217922 17.2767 0.416253 16.9153 0.777348Z"/>
</svg>
